<?xml version="1.0" encoding="utf-8"?>
<!-- Generator: Adobe Illustrator 26.3.1, SVG Export Plug-In . SVG Version: 6.00 Build 0)  -->
<svg version="1.1" id="Layer_1" xmlns="http://www.w3.org/2000/svg" xmlns:xlink="http://www.w3.org/1999/xlink" x="0px" y="0px"
	 viewBox="0 0 712.5 357.7" style="enable-background:new 0 0 712.5 357.7;" xml:space="preserve">
<style type="text/css">
	.st0{fill:#0A4499;}
	.st1{fill:#116EFA;}
	.st2{fill:#EE0435;}
</style>
<g>
	<g>
		<path class="st0" d="M24.1,196.5l18.2,53.5h0.2l17.2-53.5h24.1v77.9h-16v-55.2h-0.2l-19.1,55.2H35.3l-19.1-54.6H16v54.6H0v-77.9
			C0,196.5,24.1,196.5,24.1,196.5z"/>
		<path class="st0" d="M97.7,209.3v-12.8h15.5v12.8H97.7z M113.2,218v56.4H97.7V218H113.2z"/>
		<path class="st0" d="M141.3,196.5v77.9h-15.5v-77.9H141.3z"/>
		<path class="st0" d="M154,209.3v-12.8h15.5v12.8H154z M169.5,218v56.4H154V218H169.5z"/>
		<path class="st0" d="M212.6,218v10.4h-11.3v27.9c0,2.6,0.4,4.4,1.3,5.2c0.9,0.9,2.6,1.3,5.2,1.3c0.9,0,1.7,0,2.5-0.1
			c0.8-0.1,1.6-0.2,2.3-0.3v12c-1.3,0.2-2.8,0.4-4.4,0.4c-1.6,0.1-3.2,0.1-4.7,0.1c-2.4,0-4.7-0.2-6.8-0.5s-4-1-5.7-1.9
			c-1.6-0.9-2.9-2.3-3.9-4c-0.9-1.7-1.4-4-1.4-6.9v-33.3h-9.4V218h9.4v-16.9h15.5V218L212.6,218L212.6,218z"/>
		<path class="st0" d="M219.4,235.4c0.2-3.6,1.1-6.6,2.7-9s3.6-4.3,6.1-5.8c2.5-1.5,5.2-2.5,8.3-3.1s6.2-0.9,9.3-0.9
			c2.8,0,5.7,0.2,8.6,0.6s5.6,1.2,8,2.3s4.4,2.8,5.9,4.9c1.5,2.1,2.3,4.8,2.3,8.2v29.3c0,2.5,0.1,5,0.4,7.3c0.3,2.3,0.8,4.1,1.5,5.2
			h-15.7c-0.3-0.9-0.5-1.8-0.7-2.7s-0.3-1.8-0.4-2.8c-2.5,2.5-5.4,4.3-8.7,5.3c-3.3,1-6.8,1.5-10.2,1.5c-2.7,0-5.2-0.3-7.5-1
			c-2.3-0.6-4.4-1.7-6.1-3c-1.8-1.4-3.1-3.1-4.1-5.2c-1-2.1-1.5-4.6-1.5-7.5c0-3.2,0.6-5.8,1.7-7.9s2.6-3.7,4.4-5
			c1.8-1.2,3.8-2.2,6.1-2.8c2.3-0.6,4.6-1.1,6.9-1.5c2.3-0.4,4.6-0.6,6.9-0.9s4.2-0.5,6-1s3.1-1.1,4.1-1.9c1-0.8,1.5-2,1.4-3.6
			c0-1.7-0.3-3-0.8-4c-0.5-1-1.3-1.7-2.2-2.3c-0.9-0.5-2-0.9-3.2-1.1s-2.5-0.3-3.9-0.3c-3,0-5.5,0.6-7.2,2s-2.8,3.5-3,6.5
			L219.4,235.4L219.4,235.4z M255.2,246.8c-0.6,0.6-1.5,1-2.5,1.4s-2,0.6-3.2,0.8c-1.1,0.2-2.3,0.4-3.5,0.5
			c-1.2,0.1-2.5,0.3-3.7,0.5c-1.2,0.2-2.3,0.5-3.4,0.9s-2.1,0.9-2.9,1.5c-0.8,0.6-1.5,1.4-2,2.4c-0.5,1-0.8,2.1-0.8,3.6
			s0.2,2.5,0.8,3.5c0.5,1,1.2,1.7,2.1,2.2s1.9,0.9,3,1.1c1.2,0.2,2.4,0.3,3.6,0.3c3,0,5.4-0.5,7.1-1.5c1.7-1,2.9-2.2,3.7-3.6
			c0.8-1.4,1.3-2.9,1.5-4.3c0.2-1.5,0.3-2.6,0.3-3.5L255.2,246.8L255.2,246.8z"/>
		<path class="st0" d="M297.4,218v10.5h0.2c0.7-1.7,1.7-3.4,2.9-4.9c1.2-1.5,2.6-2.8,4.2-3.8c1.6-1,3.3-1.9,5.1-2.5
			c1.8-0.6,3.7-0.9,5.7-0.9c1,0,2.1,0.2,3.4,0.5v14.4c-0.7-0.1-1.6-0.3-2.6-0.4c-1-0.1-2-0.2-2.9-0.2c-2.8,0-5.2,0.5-7.2,1.4
			c-2,1-3.5,2.2-4.7,3.9c-1.2,1.6-2,3.5-2.6,5.7c-0.5,2.2-0.8,4.5-0.8,7.1v25.4h-15.5V218L297.4,218L297.4,218z"/>
		<path class="st0" d="M352.7,291.2c-3,2-7.1,2.9-12.4,2.9c-1.6,0-3.2,0-4.7-0.2c-1.6-0.1-3.1-0.2-4.7-0.4v-12.8
			c1.5,0.1,2.9,0.3,4.5,0.4s3,0.2,4.6,0.1c2-0.2,3.5-1,4.5-2.4c1-1.4,1.5-2.9,1.5-4.6c0-1.2-0.2-2.4-0.6-3.5L325.4,218h16.5
			l12.8,38.6h0.2l12.3-38.6h16l-23.5,63.4C358,285.9,355.7,289.2,352.7,291.2L352.7,291.2z"/>
	</g>
	<g>
		<path class="st0" d="M437.8,196.5v77.9h-17.1v-77.9H437.8z"/>
		<path class="st0" d="M466.5,218v7.9h0.3c2-3.3,4.5-5.6,7.6-7.1c3.1-1.5,6.3-2.2,9.6-2.2c4.1,0,7.5,0.6,10.2,1.7
			c2.7,1.1,4.7,2.7,6.3,4.7s2.6,4.4,3.2,7.3s0.9,6,0.9,9.5v34.7h-15.5v-31.8c0-4.6-0.7-8.1-2.2-10.4c-1.5-2.3-4-3.4-7.7-3.4
			c-4.2,0-7.3,1.2-9.2,3.8c-1.9,2.5-2.8,6.6-2.8,12.4v29.5h-15.5V218L466.5,218L466.5,218z"/>
		<path class="st0" d="M512.4,281.4c1.6,0,3-0.3,4.2-0.9s1.8-2,1.8-4.1V218h15.5v59.1c0,2.9-0.3,5.4-0.9,7.5
			c-0.6,2.1-1.7,3.9-3.2,5.3s-3.5,2.5-6,3.2c-2.5,0.7-5.8,1-9.7,1c-1.8,0-3.5-0.1-4.9-0.4v-12.8C509.9,281.2,511,281.4,512.4,281.4
			L512.4,281.4z M518.4,209.3v-12.8h15.5v12.8H518.4z"/>
		<path class="st0" d="M585.5,274.4v-7.9h-0.3c-2,3.3-4.5,5.6-7.6,7.1c-3.1,1.5-6.3,2.2-9.6,2.2c-4.1,0-7.5-0.5-10.2-1.6
			c-2.7-1.1-4.7-2.6-6.3-4.6s-2.6-4.4-3.2-7.3c-0.6-2.9-0.9-6-0.9-9.5V218h15.5v31.8c0,4.6,0.7,8.1,2.2,10.4s4,3.4,7.7,3.4
			c4.2,0,7.3-1.2,9.2-3.8c1.9-2.5,2.8-6.6,2.8-12.4V218h15.5v56.4L585.5,274.4L585.5,274.4z"/>
		<path class="st0" d="M626.7,218v10.5h0.2c0.7-1.7,1.7-3.4,2.9-4.9c1.2-1.5,2.7-2.8,4.2-3.8c1.6-1,3.3-1.9,5.1-2.5
			c1.8-0.6,3.7-0.9,5.7-0.9c1,0,2.1,0.2,3.4,0.5v14.4c-0.7-0.1-1.6-0.3-2.6-0.4c-1-0.1-2-0.2-2.9-0.2c-2.8,0-5.2,0.5-7.2,1.4
			s-3.5,2.2-4.7,3.9c-1.2,1.6-2,3.5-2.6,5.7c-0.5,2.2-0.8,4.5-0.8,7.1v25.4h-15.5V218L626.7,218L626.7,218z"/>
		<path class="st0" d="M682,291.2c-3,2-7.1,2.9-12.4,2.9c-1.6,0-3.2,0-4.7-0.2s-3.2-0.2-4.7-0.4v-12.8c1.5,0.1,2.9,0.3,4.5,0.4
			c1.5,0.1,3,0.2,4.6,0.1c2-0.2,3.5-1,4.5-2.4c1-1.4,1.5-2.9,1.5-4.6c0-1.2-0.2-2.4-0.7-3.5L654.7,218h16.5l12.8,38.6h0.2l12.3-38.6
			h16L689,281.4C687.3,285.9,685,289.2,682,291.2L682,291.2z"/>
	</g>
</g>
<g>
	<path id="Path_23" class="st0" d="M95.8,335.2c1.5,1.5,2.2,3.5,2,5.6V351H94v-2.1c-0.5,0.8-1.3,1.4-2.1,1.8
		c-1.1,0.4-2.2,0.6-3.4,0.6c-1.2,0-2.4-0.2-3.4-0.7c-0.9-0.4-1.7-1-2.3-1.9c-0.5-0.8-0.8-1.7-0.8-2.7c-0.1-1.5,0.6-2.9,1.8-3.8
		c1.6-1.1,3.6-1.6,5.5-1.4h4.5v-0.3c0.1-1.1-0.3-2.1-1.1-2.8c-0.9-0.7-2.1-1.1-3.2-1c-1,0-2,0.1-2.9,0.5c-0.9,0.3-1.7,0.7-2.4,1.3
		l-1.6-3c1-0.7,2.1-1.3,3.3-1.6c1.3-0.4,2.7-0.6,4.1-0.5C92,333.3,94.1,333.9,95.8,335.2L95.8,335.2z M92.1,347.6
		c0.8-0.5,1.4-1.2,1.7-2v-2h-4.2c-2.4,0-3.5,0.8-3.5,2.3c0,0.7,0.3,1.4,0.9,1.8c0.7,0.5,1.6,0.7,2.4,0.7
		C90.3,348.3,91.3,348.1,92.1,347.6L92.1,347.6z"/>
	<path id="Path_24" class="st0" d="M116.8,349.8c-1.8-1-3.3-2.4-4.4-4.2c-2.1-3.8-2.1-8.4,0-12.1c1.1-1.8,2.6-3.2,4.4-4.2
		c1.9-1,4.1-1.5,6.3-1.5c1.8,0,3.5,0.3,5.1,1c1.5,0.6,2.9,1.6,3.9,2.8l-2.7,2.6c-1.6-1.7-3.8-2.7-6.1-2.7c-1.5,0-2.9,0.3-4.2,1
		c-1.2,0.7-2.2,1.6-2.9,2.9c-1.4,2.6-1.4,5.7,0,8.3c0.7,1.2,1.7,2.2,2.9,2.9c1.3,0.7,2.8,1,4.2,1c2.3,0,4.6-1,6.1-2.7l2.7,2.6
		c-1.1,1.2-2.4,2.2-3.9,2.8c-1.6,0.7-3.4,1-5.1,1C120.9,351.4,118.7,350.9,116.8,349.8L116.8,349.8z"/>
	<path id="Path_25" class="st0" d="M135.9,326.8h4.1V351h-4.1V326.8z"/>
	<path id="Path_26" class="st0" d="M157.9,335.2c1.5,1.5,2.2,3.5,2,5.6V351h-3.9v-2.1c-0.5,0.8-1.3,1.4-2.1,1.8
		c-1.1,0.4-2.2,0.6-3.4,0.6c-1.2,0-2.4-0.2-3.4-0.7c-0.9-0.4-1.7-1-2.3-1.9c-0.5-0.8-0.8-1.7-0.8-2.7c-0.1-1.5,0.6-2.9,1.8-3.8
		c1.6-1.1,3.6-1.6,5.5-1.4h4.5v-0.3c0.1-1.1-0.3-2.1-1.1-2.8c-0.9-0.7-2.1-1.1-3.2-1c-1,0-2,0.2-2.9,0.5c-0.9,0.3-1.7,0.7-2.4,1.3
		l-1.6-3c1-0.7,2.1-1.3,3.3-1.6c1.3-0.4,2.7-0.6,4.1-0.5C154.1,333.3,156.2,333.9,157.9,335.2L157.9,335.2z M154.1,347.6
		c0.8-0.5,1.4-1.2,1.7-2v-2h-4.2c-2.4,0-3.5,0.8-3.5,2.3c0,0.7,0.3,1.4,0.9,1.8c0.7,0.5,1.6,0.7,2.4,0.7
		C152.4,348.3,153.3,348.1,154.1,347.6L154.1,347.6z"/>
	<path id="Path_27" class="st0" d="M165.3,330c-1-0.9-1-2.4-0.1-3.4c0,0,0.1-0.1,0.1-0.1c0.5-0.5,1.2-0.7,1.9-0.7
		c0.7,0,1.3,0.2,1.9,0.7c0.5,0.4,0.8,1,0.7,1.7c0,0.7-0.2,1.3-0.7,1.8c-0.5,0.5-1.2,0.8-1.9,0.7C166.5,330.7,165.8,330.5,165.3,330
		L165.3,330z M165.1,333.6h4.1V351h-4.1V333.6z"/>
	<path id="Path_28" class="st0" d="M201.8,335.3c1.4,1.6,2.1,3.6,1.9,5.7v10h-4.1v-9.5c0.1-1.2-0.3-2.5-1-3.5
		c-0.8-0.8-1.8-1.2-2.9-1.2c-1.2,0-2.5,0.4-3.3,1.4c-0.9,1.1-1.3,2.5-1.2,3.9v8.9h-4.1v-9.5c0.1-1.2-0.3-2.5-1-3.5
		c-0.8-0.8-1.8-1.2-2.9-1.2c-1.2-0.1-2.5,0.4-3.3,1.3c-0.9,1.1-1.3,2.5-1.2,3.9v8.9h-4.1v-17.5h3.9v2.2c0.7-0.8,1.5-1.4,2.4-1.8
		c1-0.4,2.1-0.6,3.3-0.6c1.2,0,2.4,0.2,3.5,0.7c1,0.5,1.8,1.2,2.4,2.2c0.7-0.9,1.7-1.7,2.8-2.1c1.2-0.5,2.5-0.8,3.8-0.8
		C198.6,333.3,200.5,334,201.8,335.3L201.8,335.3z"/>
	<path id="Path_29" class="st0" d="M210.2,350.7c-1.1-0.3-2.2-0.8-3.2-1.4l1.6-3.1c0.9,0.6,1.8,1,2.8,1.3c1.1,0.3,2.1,0.5,3.2,0.5
		c2.4,0,3.7-0.6,3.7-1.9c0-0.6-0.4-1.1-0.9-1.3c-1-0.3-2-0.5-3-0.7c-1.2-0.2-2.4-0.4-3.5-0.7c-0.9-0.3-1.7-0.8-2.4-1.5
		c-0.7-0.8-1.1-1.9-1-3c0-1.6,0.8-3.1,2.1-4c1.7-1.1,3.6-1.6,5.6-1.5c1.2,0,2.4,0.1,3.6,0.4c1,0.2,2,0.6,3,1.1l-1.6,3.1
		c-1.5-0.9-3.2-1.3-5-1.3c-0.9-0.1-1.9,0.1-2.7,0.5c-0.6,0.3-0.9,0.8-0.9,1.4c0,0.6,0.4,1.2,1,1.4c1,0.4,2,0.6,3.1,0.8
		c1.2,0.2,2.3,0.4,3.4,0.7c0.9,0.3,1.7,0.8,2.3,1.4c0.7,0.8,1,1.8,1,2.9c0,1.6-0.8,3.1-2.1,3.9c-1.7,1.1-3.8,1.6-5.8,1.5
		C213,351.3,211.6,351.1,210.2,350.7L210.2,350.7z"/>
	<path id="Path_30" class="st0" d="M256.3,351l0-15.2l-7.5,12.6h-1.9l-7.5-12.4v15h-4.1v-22.9h3.5l9.1,15.2l8.9-15.2h3.5l0,22.9
		L256.3,351L256.3,351z"/>
	<path id="Path_31" class="st0" d="M278.6,335.2c1.5,1.5,2.2,3.5,2,5.6V351h-3.9v-2.1c-0.5,0.8-1.3,1.4-2.1,1.8
		c-1.1,0.4-2.2,0.6-3.4,0.6c-1.2,0-2.4-0.2-3.4-0.7c-0.9-0.4-1.7-1-2.3-1.9c-0.5-0.8-0.8-1.7-0.8-2.7c0-1.5,0.6-2.9,1.8-3.8
		c1.6-1.1,3.6-1.6,5.5-1.4h4.5v-0.3c0.1-1.1-0.3-2.1-1.1-2.8c-0.9-0.7-2.1-1.1-3.2-1c-1,0-2,0.1-2.9,0.5c-0.9,0.3-1.7,0.7-2.4,1.3
		l-1.6-3c1-0.7,2.1-1.3,3.3-1.6c1.3-0.4,2.7-0.6,4.1-0.5C274.8,333.2,276.9,333.9,278.6,335.2L278.6,335.2z M274.9,347.6
		c0.8-0.5,1.4-1.2,1.7-2v-2h-4.2c-2.4,0-3.5,0.8-3.5,2.3c0,0.7,0.3,1.4,0.9,1.8c0.7,0.5,1.6,0.7,2.5,0.7
		C273.1,348.3,274.1,348.1,274.9,347.6L274.9,347.6L274.9,347.6z"/>
	<path id="Path_32" class="st0" d="M301.1,335.3c1.4,1.5,2.1,3.6,2,5.7v10H299v-9.5c0.1-1.2-0.3-2.5-1.1-3.5
		c-0.8-0.8-1.9-1.2-3.1-1.2c-1.3-0.1-2.6,0.4-3.6,1.4c-0.9,1.1-1.4,2.5-1.3,3.9v8.8h-4.1v-17.5h3.9v2.3c0.7-0.8,1.6-1.4,2.5-1.8
		c1.1-0.4,2.3-0.6,3.5-0.6C297.8,333.3,299.7,334,301.1,335.3L301.1,335.3z"/>
	<path id="Path_33" class="st0" d="M320.8,335.2c1.5,1.5,2.2,3.5,2,5.6V351H319v-2.1c-0.5,0.8-1.3,1.4-2.1,1.8
		c-1.1,0.4-2.2,0.6-3.4,0.6c-1.2,0-2.4-0.2-3.4-0.7c-0.9-0.4-1.7-1-2.3-1.9c-0.5-0.8-0.8-1.7-0.8-2.7c0-1.5,0.6-2.9,1.8-3.8
		c1.6-1.1,3.6-1.6,5.5-1.4h4.5v-0.3c0.1-1.1-0.3-2.1-1.1-2.8c-0.9-0.7-2.1-1.1-3.2-1c-1,0-2,0.1-2.9,0.5c-0.9,0.3-1.7,0.7-2.4,1.3
		l-1.6-3c1-0.7,2.1-1.3,3.3-1.6c1.3-0.4,2.7-0.6,4.1-0.5C317.1,333.2,319.2,333.9,320.8,335.2L320.8,335.2z M317.1,347.6
		c0.8-0.5,1.4-1.2,1.7-2v-2h-4.2c-2.4,0-3.5,0.8-3.5,2.3c0,0.7,0.3,1.4,0.9,1.8c0.7,0.5,1.6,0.7,2.5,0.7
		C315.3,348.3,316.3,348.1,317.1,347.6L317.1,347.6z"/>
	<path id="Path_34" class="st0" d="M345.6,333.6v14.8c0.6,4.5-2.6,8.6-7.1,9.2c-0.8,0.1-1.6,0.1-2.3,0c-1.6,0-3.2-0.2-4.8-0.6
		c-1.4-0.4-2.6-1-3.7-1.9l1.8-3.1c0.9,0.7,1.8,1.2,2.9,1.5c1.1,0.4,2.3,0.6,3.5,0.6c1.5,0.1,3-0.3,4.2-1.3c1-1.1,1.5-2.5,1.3-4v-0.9
		c-0.7,0.8-1.6,1.4-2.5,1.7c-1.1,0.4-2.2,0.6-3.3,0.6c-1.6,0-3.1-0.3-4.5-1.1c-1.3-0.7-2.4-1.7-3.2-3c-0.8-1.3-1.2-2.9-1.2-4.4
		c0-1.5,0.4-3.1,1.2-4.4c0.8-1.3,1.9-2.3,3.2-3c1.4-0.7,2.9-1.1,4.5-1c1.2,0,2.4,0.2,3.5,0.6c1,0.4,1.9,1,2.6,1.9v-2.3L345.6,333.6
		L345.6,333.6z M340.1,345.4c1-0.9,1.5-2.2,1.5-3.6c0-1.4-0.5-2.6-1.5-3.6c-2.2-1.8-5.4-1.8-7.6,0c-1,0.9-1.5,2.2-1.5,3.6
		c0,1.4,0.5,2.7,1.5,3.6C334.7,347.2,337.9,347.2,340.1,345.4z"/>
	<path id="Path_35" class="st0" d="M367.3,343.6h-13.7c0.2,1.2,0.9,2.3,1.9,3c1.1,0.8,2.4,1.2,3.8,1.1c1.8,0.1,3.5-0.6,4.7-1.9
		l2.2,2.5c-0.8,1-1.8,1.7-3,2.1c-3,1.1-6.3,0.9-9.1-0.4c-1.4-0.7-2.6-1.8-3.4-3.2c-0.8-1.4-1.2-3-1.2-4.6c0-1.6,0.4-3.2,1.2-4.6
		c0.8-1.3,1.9-2.5,3.2-3.2c1.4-0.8,3-1.2,4.6-1.1c1.6,0,3.2,0.4,4.6,1.1c1.3,0.7,2.4,1.8,3.1,3.2c0.8,1.5,1.2,3.1,1.1,4.7
		C367.4,342.7,367.4,343.1,367.3,343.6L367.3,343.6z M355.2,337.8c-0.9,0.8-1.5,1.9-1.6,3.1h9.9c-0.1-1.2-0.7-2.3-1.6-3.1
		c-0.9-0.8-2.1-1.2-3.3-1.2C357.4,336.6,356.2,337,355.2,337.8L355.2,337.8z"/>
	<path id="Path_36" class="st0" d="M398.5,335.3c1.4,1.6,2.1,3.6,1.9,5.7v10h-4.1v-9.5c0.1-1.2-0.3-2.5-1-3.5
		c-0.8-0.8-1.8-1.2-2.9-1.2c-1.2,0-2.5,0.4-3.3,1.4c-0.9,1.1-1.3,2.5-1.2,3.9v8.9h-4.1v-9.5c0.1-1.2-0.3-2.5-1-3.5
		c-0.8-0.8-1.8-1.2-2.9-1.2c-1.2-0.1-2.5,0.4-3.3,1.3c-0.9,1.1-1.3,2.5-1.2,3.9v8.9h-4.1v-17.5h3.9v2.2c0.7-0.8,1.5-1.4,2.5-1.8
		c1-0.4,2.1-0.6,3.3-0.6c1.2,0,2.4,0.2,3.5,0.7c1,0.5,1.8,1.2,2.4,2.2c0.7-0.9,1.7-1.7,2.8-2.1c1.2-0.5,2.5-0.8,3.8-0.8
		C395.3,333.3,397.2,334,398.5,335.3L398.5,335.3z"/>
	<path id="Path_37" class="st0" d="M422.2,343.6h-13.7c0.2,1.2,0.9,2.3,1.9,3c1.1,0.8,2.4,1.2,3.8,1.1c1.8,0.1,3.5-0.6,4.7-1.9
		l2.2,2.5c-0.8,1-1.8,1.7-3,2.1c-3,1.1-6.3,0.9-9.1-0.4c-1.4-0.7-2.6-1.8-3.4-3.2c-0.8-1.4-1.2-3-1.2-4.6c0-1.6,0.4-3.2,1.2-4.6
		c0.8-1.3,1.9-2.5,3.2-3.2c1.4-0.8,3-1.2,4.6-1.1c1.6,0,3.2,0.4,4.6,1.1c1.3,0.7,2.4,1.8,3.1,3.2c0.8,1.5,1.1,3.1,1.1,4.7
		C422.3,342.7,422.3,343.1,422.2,343.6L422.2,343.6z M410.1,337.8c-0.9,0.8-1.5,1.9-1.6,3.1h9.9c-0.1-1.2-0.7-2.3-1.6-3.1
		c-0.9-0.8-2.1-1.2-3.3-1.2C412.2,336.6,411.1,337,410.1,337.8L410.1,337.8L410.1,337.8z"/>
	<path id="Path_38" class="st0" d="M441.4,335.3c1.4,1.5,2.1,3.6,2,5.7v10h-4.1v-9.5c0.1-1.2-0.3-2.5-1.1-3.5
		c-0.8-0.8-1.9-1.2-3.1-1.2c-1.3-0.1-2.6,0.4-3.6,1.4c-0.9,1.1-1.4,2.5-1.3,3.9v8.8h-4.1v-17.5h3.9v2.3c0.7-0.8,1.6-1.4,2.5-1.8
		c1.1-0.4,2.3-0.6,3.5-0.6C438.1,333.3,440,334,441.4,335.3L441.4,335.3z"/>
	<path id="Path_39" class="st0" d="M459.1,350.1c-0.5,0.4-1.1,0.7-1.8,0.9c-0.7,0.2-1.4,0.3-2.2,0.3c-1.6,0.1-3.2-0.4-4.4-1.5
		c-1.1-1.2-1.7-2.8-1.6-4.4V337h-2.9v-3.3h2.9v-4h4.1v4h4.7v3.3h-4.7v8.3c0,0.7,0.2,1.4,0.6,2c0.5,0.5,1.1,0.7,1.8,0.7
		c0.8,0,1.6-0.2,2.3-0.7L459.1,350.1L459.1,350.1z"/>
	<path id="Path_40" class="st0" d="M476.2,349.8c-1.8-1-3.3-2.4-4.4-4.2c-2.1-3.8-2.1-8.3,0-12.1c1-1.8,2.6-3.2,4.4-4.2
		c1.9-1,4.1-1.5,6.3-1.5c1.8,0,3.5,0.3,5.1,1c1.5,0.6,2.8,1.6,3.9,2.8l-2.7,2.6c-1.5-1.7-3.8-2.7-6.1-2.7c-1.5,0-2.9,0.3-4.2,1
		c-1.2,0.7-2.2,1.6-2.9,2.9c-1.4,2.6-1.4,5.7,0,8.3c0.7,1.2,1.7,2.2,2.9,2.9c1.3,0.7,2.8,1,4.2,1c2.3,0,4.6-1,6.1-2.7l2.7,2.6
		c-1.1,1.2-2.4,2.2-3.9,2.8c-1.6,0.7-3.4,1-5.2,1C480.2,351.4,478.1,350.9,476.2,349.8L476.2,349.8z"/>
	<path id="Path_41" class="st0" d="M497.6,350.1c-1.4-0.7-2.5-1.8-3.3-3.2c-1.6-2.9-1.6-6.4,0-9.2c0.8-1.3,1.9-2.4,3.3-3.2
		c3-1.5,6.6-1.5,9.6,0c1.4,0.7,2.5,1.8,3.3,3.2c1.6,2.9,1.6,6.4,0,9.2c-0.8,1.4-1.9,2.5-3.3,3.2
		C504.2,351.6,500.7,351.6,497.6,350.1z M506.1,346.3c2-2.3,2-5.6,0-7.9c-1-1-2.3-1.5-3.7-1.5c-1.4,0-2.7,0.5-3.7,1.5
		c-1.9,2.3-1.9,5.6,0,7.9c1,1,2.3,1.5,3.7,1.5C503.8,347.8,505.2,347.3,506.1,346.3L506.1,346.3z"/>
	<path id="Path_42" class="st0" d="M542.9,335.3c1.4,1.6,2.1,3.6,1.9,5.7v10h-4.1v-9.5c0.1-1.2-0.3-2.5-1-3.5
		c-0.8-0.8-1.8-1.2-2.9-1.2c-1.2,0-2.5,0.4-3.3,1.4c-0.9,1.1-1.3,2.5-1.2,3.9v8.9h-4.1v-9.5c0.1-1.2-0.3-2.5-1-3.5
		c-0.8-0.8-1.8-1.2-2.9-1.2c-1.2-0.1-2.5,0.4-3.3,1.3c-0.9,1.1-1.3,2.5-1.2,3.9v8.9h-4.1v-17.5h3.9v2.2c0.7-0.8,1.5-1.4,2.5-1.8
		c1-0.4,2.2-0.6,3.3-0.6c1.2,0,2.4,0.2,3.5,0.7c1,0.5,1.8,1.2,2.4,2.2c0.7-0.9,1.7-1.7,2.8-2.1c1.2-0.5,2.5-0.8,3.8-0.8
		C539.6,333.3,541.5,334,542.9,335.3L542.9,335.3z"/>
	<path id="Path_43" class="st0" d="M564.3,334.5c1.3,0.7,2.4,1.8,3.2,3.1c0.8,1.4,1.2,3,1.1,4.7c0,1.6-0.4,3.2-1.1,4.7
		c-0.7,1.3-1.8,2.4-3.2,3.1c-1.4,0.8-3,1.1-4.6,1.1c-2.1,0.1-4.2-0.8-5.6-2.4v8.5h-4.1v-23.8h3.9v2.3c0.7-0.8,1.5-1.5,2.5-1.9
		c1-0.4,2.2-0.6,3.3-0.6C561.3,333.4,562.9,333.7,564.3,334.5L564.3,334.5z M563,346.3c1.9-2.3,1.9-5.6,0-7.9c-1-1-2.3-1.5-3.7-1.5
		c-0.9,0-1.8,0.2-2.7,0.7c-0.8,0.5-1.4,1.1-1.8,1.9c-0.9,1.8-0.9,3.9,0,5.8c0.4,0.8,1.1,1.5,1.8,1.9c0.8,0.5,1.7,0.7,2.7,0.7
		C560.7,347.8,562,347.2,563,346.3L563,346.3z"/>
	<path id="Path_44" class="st0" d="M584.8,335.2c1.5,1.5,2.2,3.5,2,5.6V351H583v-2.1c-0.5,0.8-1.3,1.4-2.1,1.8
		c-1.1,0.4-2.2,0.6-3.3,0.6c-1.2,0-2.3-0.2-3.4-0.7c-0.9-0.4-1.7-1-2.3-1.9c-0.5-0.8-0.8-1.7-0.8-2.7c0-1.5,0.6-2.9,1.8-3.8
		c1.6-1.1,3.6-1.6,5.5-1.4h4.5v-0.3c0.1-1.1-0.3-2.1-1.1-2.8c-0.9-0.7-2.1-1.1-3.2-1c-1,0-2,0.1-2.9,0.5c-0.9,0.3-1.7,0.7-2.4,1.3
		l-1.6-3c1-0.7,2.1-1.3,3.3-1.6c1.3-0.4,2.7-0.6,4.1-0.5C581,333.2,583.1,333.9,584.8,335.2L584.8,335.2z M581.1,347.6
		c0.8-0.5,1.4-1.2,1.7-2v-2h-4.2c-2.3,0-3.5,0.8-3.5,2.3c0,0.7,0.3,1.4,0.9,1.8c0.7,0.5,1.6,0.7,2.5,0.7
		C579.3,348.3,580.2,348.1,581.1,347.6L581.1,347.6z"/>
	<path id="Path_45" class="st0" d="M607.3,335.3c1.4,1.5,2.2,3.6,2,5.7v10h-4.1v-9.5c0.1-1.2-0.3-2.5-1.1-3.5
		c-0.8-0.8-1.9-1.2-3.1-1.2c-1.3-0.1-2.6,0.4-3.6,1.4c-0.9,1.1-1.4,2.5-1.3,3.9v8.8h-4.1v-17.5h3.9v2.3c0.7-0.8,1.6-1.4,2.5-1.8
		c1.1-0.4,2.3-0.6,3.5-0.6C603.9,333.3,605.8,334,607.3,335.3L607.3,335.3z"/>
	<path id="Path_46" class="st0" d="M630.5,333.6l-8.2,18.9c-0.5,1.6-1.5,3-2.8,4c-1.2,0.8-2.5,1.2-4,1.2c-0.9,0-1.8-0.1-2.6-0.4
		c-0.8-0.2-1.5-0.6-2.1-1.2l1.6-3c0.4,0.4,0.9,0.7,1.4,0.9c0.5,0.2,1.1,0.3,1.6,0.3c0.6,0,1.3-0.2,1.8-0.6c0.6-0.5,1-1.1,1.3-1.9
		l0.3-0.7l-7.6-17.5h4.2l5.5,12.9l5.5-12.9L630.5,333.6L630.5,333.6z"/>
</g>
<polygon class="st1" points="356.2,130.7 421.6,98 421.6,65.3 323.6,114.3 "/>
<polygon class="st2" points="290.9,98 421.6,32.7 421.6,0 290.9,65.3 "/>
<polygon class="st1" points="290.9,32.7 323.6,16.3 290.9,0 "/>
</svg>
