<?xml version="1.0" encoding="utf-8"?>
<!-- Generator: Adobe Illustrator 27.0.0, SVG Export Plug-In . SVG Version: 6.00 Build 0)  -->
<svg version="1.1" id="Layer_1" xmlns="http://www.w3.org/2000/svg" xmlns:xlink="http://www.w3.org/1999/xlink" x="0px" y="0px"
	 viewBox="0 0 600 600" enable-background="new 0 0 600 600" xml:space="preserve">
<g>
	<g id="body">
		<path fill="#DBC9B6" d="M524.3,10.9v519.7c0,6-5.3,10.9-11.9,10.9h-427c-6.6,0-11.9-4.9-11.9-10.9V10.9c0-6,5.3-10.9,11.9-10.9
			h427C519,0,524.3,4.9,524.3,10.9z"/>
	</g>
	<linearGradient id="SVGID_1_" gradientUnits="userSpaceOnUse" x1="298.8729" y1="511.1543" x2="298.8729" y2="541.4934">
		<stop  offset="0" style="stop-color:#FFFFFF;stop-opacity:0"/>
		<stop  offset="0.5307" style="stop-color:#000000;stop-opacity:0.2"/>
	</linearGradient>
	<rect x="73.4" y="511.2" fill="url(#SVGID_1_)" width="450.8" height="30.3"/>
	<g id="body_lighting">
		<defs>
			<path id="SVGID_00000069368560586325793190000007079381091896735118_" d="M524.9,10.9v519.7c0,6-5.3,10.9-11.9,10.9H86
				c-6.6,0-11.9-4.9-11.9-10.9V10.9C74.1,4.9,79.4,0,86,0h427C519.6,0,524.9,4.9,524.9,10.9z"/>
		</defs>
		<clipPath id="SVGID_00000098183739948092866990000003844206432660887729_">
			<use xlink:href="#SVGID_00000069368560586325793190000007079381091896735118_"  overflow="visible"/>
		</clipPath>
		
			<radialGradient id="SVGID_00000100355064763985262670000009984538519173862069_" cx="407.1245" cy="177.8563" r="163.1599" gradientTransform="matrix(1.7435 0 0 1.8373 -325.8388 -117.0286)" gradientUnits="userSpaceOnUse">
			<stop  offset="0.1732" style="stop-color:#FFFFFF"/>
			<stop  offset="1" style="stop-color:#FFFFFF;stop-opacity:0"/>
		</radialGradient>
		
			<rect x="99.5" y="-90" clip-path="url(#SVGID_00000098183739948092866990000003844206432660887729_)" fill="url(#SVGID_00000100355064763985262670000009984538519173862069_)" width="568.9" height="599.5"/>
	</g>
	<g>
		<defs>
			<path id="SVGID_00000000189255292343096020000007464957799959140751_" d="M479.2,374.2H118.5c-6.2,0-11.3-5-11.3-11.3V47.3
				c0-6.2,5-11.3,11.3-11.3h360.7c6.2,0,11.3,5,11.3,11.3v315.6C490.5,369.2,485.4,374.2,479.2,374.2z"/>
		</defs>
		
			<linearGradient id="SVGID_00000026132331298489401790000007070568277731510662_" gradientUnits="userSpaceOnUse" x1="107.262" y1="205.1363" x2="490.4837" y2="205.1363">
			<stop  offset="0" style="stop-color:#AFA59E"/>
			<stop  offset="0.4643" style="stop-color:#88807B"/>
			<stop  offset="1" style="stop-color:#5E5956"/>
		</linearGradient>
		
			<use xlink:href="#SVGID_00000000189255292343096020000007464957799959140751_"  overflow="visible" fill="url(#SVGID_00000026132331298489401790000007070568277731510662_)"/>
		<clipPath id="SVGID_00000087396067964086587290000016107666648709921420_">
			<use xlink:href="#SVGID_00000000189255292343096020000007464957799959140751_"  overflow="visible"/>
		</clipPath>
		<g clip-path="url(#SVGID_00000087396067964086587290000016107666648709921420_)">
			<image overflow="visible" width="456" height="242" xlink:href="5E2B6D76.png"  transform="matrix(1 0 0 1 71 0)">
			</image>
		</g>
		<g clip-path="url(#SVGID_00000087396067964086587290000016107666648709921420_)">
			<image overflow="visible" width="264" height="411" xlink:href="5E2B6D7A.png"  transform="matrix(1 0 0 1 71 0)">
			</image>
		</g>
		<g clip-path="url(#SVGID_00000087396067964086587290000016107666648709921420_)">
			<image overflow="visible" width="456" height="242" xlink:href="5E2B6D7D.png"  transform="matrix(1 0 0 1 71 169)">
			</image>
		</g>
		<g clip-path="url(#SVGID_00000087396067964086587290000016107666648709921420_)">
			<image overflow="visible" width="265" height="411" xlink:href="5E2B6D7E.png"  transform="matrix(1 0 0 1 262 0)">
			</image>
		</g>
	</g>
	<path fill="#1C1C1C" d="M456.1,362.2H141.6c-12.4,0-22.5-10.1-22.5-22.5v-269c0-12.4,10.1-22.5,22.5-22.5h314.5
		c12.4,0,22.5,10.1,22.5,22.5v269C478.6,352.1,468.6,362.2,456.1,362.2z"/>
	<path d="M453.2,357.3l-64.2,2.3l-90.2,1.1l-90.2-1.1l-64.2-2.3c-11.3,0-20.4-9.1-20.4-20.4l-2.3-59.6l-1.1-72.1l1.1-81.7l2.3-50.1
		c0-11.3,9.1-20.4,20.4-20.4l64.2-2.3l90.2-1.1l90.2,1.1l64.2,2.3c11.3,0,20.4,9.1,20.4,20.4l2.3,50.6l1.1,81.7l-1.1,71.6l-2.3,59.6
		C473.6,348.2,464.5,357.3,453.2,357.3z"/>
	<g>
		<defs>
			<path id="SVGID_00000153664888274925621320000012513642544835287177_" d="M453.2,357.3l-64.2,2.3l-90.2,1.1l-90.2-1.1l-64.2-2.3
				c-11.3,0-20.4-9.1-20.4-20.4l-2.3-59.6l-1.1-72.1l1.1-81.7l2.3-50.1c0-11.3,9.1-20.4,20.4-20.4l64.2-2.3l90.2-1.1l90.2,1.1
				l64.2,2.3c11.3,0,20.4,9.1,20.4,20.4l2.3,50.6l1.1,81.7l-1.1,71.6l-2.3,59.6C473.6,348.2,464.5,357.3,453.2,357.3z"/>
		</defs>
		<clipPath id="SVGID_00000053547590160908258290000011762710597328385970_">
			<use xlink:href="#SVGID_00000153664888274925621320000012513642544835287177_"  overflow="visible"/>
		</clipPath>
		
			<radialGradient id="SVGID_00000137123962324144956280000015285398581376469407_" cx="380.3628" cy="147.2239" r="149.3429" gradientTransform="matrix(1.3808 0 0 1.1481 -137.2703 -35.1924)" gradientUnits="userSpaceOnUse">
			<stop  offset="0" style="stop-color:#FFFFFF"/>
			<stop  offset="8.567911e-02" style="stop-color:#F7F7F7;stop-opacity:0.9143"/>
			<stop  offset="0.2187" style="stop-color:#E1E1E1;stop-opacity:0.7813"/>
			<stop  offset="0.3823" style="stop-color:#BDBDBD;stop-opacity:0.6177"/>
			<stop  offset="0.5702" style="stop-color:#8C8C8C;stop-opacity:0.4298"/>
			<stop  offset="0.7787" style="stop-color:#4C4C4C;stop-opacity:0.2213"/>
			<stop  offset="1" style="stop-color:#000000;stop-opacity:0"/>
		</radialGradient>
		
			<path opacity="0.3" clip-path="url(#SVGID_00000053547590160908258290000011762710597328385970_)" fill="url(#SVGID_00000137123962324144956280000015285398581376469407_)" d="
			M603.5,308.5H172.4c-14.2,0-25.7-11.5-25.7-25.7V-15.2c0-14.2,11.5-25.7,25.7-25.7h431.1c14.2,0,25.7,11.5,25.7,25.7v298.1
			C629.2,297,617.7,308.5,603.5,308.5z"/>
		
			<radialGradient id="SVGID_00000090277686262650867550000013301913045946589622_" cx="583.1696" cy="-88.8282" r="145.2318" gradientTransform="matrix(0.6139 0.146 -0.156 0.656 56.4098 67.9591)" gradientUnits="userSpaceOnUse">
			<stop  offset="0" style="stop-color:#FFFFFF"/>
			<stop  offset="8.567911e-02" style="stop-color:#F7F7F7;stop-opacity:0.9143"/>
			<stop  offset="0.2187" style="stop-color:#E1E1E1;stop-opacity:0.7813"/>
			<stop  offset="0.3823" style="stop-color:#BDBDBD;stop-opacity:0.6177"/>
			<stop  offset="0.5702" style="stop-color:#8C8C8C;stop-opacity:0.4298"/>
			<stop  offset="0.7787" style="stop-color:#4C4C4C;stop-opacity:0.2213"/>
			<stop  offset="1" style="stop-color:#000000;stop-opacity:0"/>
		</radialGradient>
		
			<path opacity="0.3" clip-path="url(#SVGID_00000053547590160908258290000011762710597328385970_)" fill="url(#SVGID_00000090277686262650867550000013301913045946589622_)" d="
			M498.7,217.1l-188.4-44.8c-7.2-1.7-11.6-8.9-9.9-16.1l41.3-173.6c1.7-7.2,8.9-11.6,16.1-9.9l188.4,44.8c7.2,1.7,11.6,8.9,9.9,16.1
			l-41.3,173.6C513.1,214.3,505.9,218.8,498.7,217.1z"/>
	</g>
	<g>
		<g>
			
				<linearGradient id="SVGID_00000044155937867297252380000018002648125245569945_" gradientUnits="userSpaceOnUse" x1="305.973" y1="542.2939" x2="290.162" y2="631.2753">
				<stop  offset="0" style="stop-color:#DBC9B6"/>
				<stop  offset="0.495" style="stop-color:#C5B4A5"/>
				<stop  offset="1" style="stop-color:#B2A396"/>
			</linearGradient>
			<path fill="url(#SVGID_00000044155937867297252380000018002648125245569945_)" d="M570.7,553.9H29.3v43.9c0,1.2,1,2.3,2.3,2.3
				h536.9c1.2,0,2.3-1,2.3-2.3V553.9z"/>
		</g>
		
			<linearGradient id="SVGID_00000012463932576723384920000015887269472479057843_" gradientUnits="userSpaceOnUse" x1="29.2889" y1="544.7817" x2="570.7111" y2="544.7817">
			<stop  offset="0" style="stop-color:#CCBBB0"/>
			<stop  offset="0.7748" style="stop-color:#DFCDBE"/>
			<stop  offset="1" style="stop-color:#E5D3C3"/>
		</linearGradient>
		<polyline fill="url(#SVGID_00000012463932576723384920000015887269472479057843_)" points="29.3,553.9 56,535.7 552.9,535.7 
			570.7,553.9 		"/>
		<g>
			<path fill="#3F3534" d="M98.9,544H56v-14.2c0-1.5,1-2.7,2.3-2.7c5.8,0.7,12.2,1.1,19.2,1.1s13.3-0.4,19.2-1.1c0.2,0,1,0,1.6,0.8
				c0.4,0.5,0.7,1.2,0.7,1.9V544z"/>
			<path fill="#3F3534" d="M143.8,544H101v-14.2c0-1.5,1-2.7,2.3-2.7c5.8,0.7,12.2,1.1,19.2,1.1s13.3-0.4,19.2-1.1
				c0.2,0,1,0,1.6,0.8c0.4,0.5,0.7,1.2,0.7,1.9V544z"/>
			<path fill="#3F3534" d="M188.8,544H146v-14.2c0-1.5,1-2.7,2.3-2.7c5.8,0.7,12.2,1.1,19.2,1.1s13.3-0.4,19.2-1.1
				c0.2,0,1,0,1.6,0.8c0.4,0.5,0.7,1.2,0.7,1.9V544z"/>
			<path fill="#3F3534" d="M233.7,544h-42.8v-14.2c0-1.5,1-2.7,2.3-2.7c5.8,0.7,12.2,1.1,19.2,1.1c6.9,0,13.3-0.4,19.2-1.1
				c0.2,0,1,0,1.6,0.8c0.4,0.5,0.7,1.2,0.7,1.9V544z"/>
			<path fill="#3F3534" d="M278.7,544h-42.8v-14.2c0-1.5,1-2.7,2.3-2.7c5.8,0.7,12.2,1.1,19.2,1.1s13.3-0.4,19.2-1.1
				c0.2,0,1,0,1.6,0.8c0.4,0.5,0.7,1.2,0.7,1.9V544z"/>
			<path fill="#3F3534" d="M323.7,544h-42.8v-14.2c0-1.5,1-2.7,2.3-2.7c5.8,0.7,12.2,1.1,19.2,1.1s13.3-0.4,19.2-1.1
				c0.2,0,1,0,1.6,0.8c0.4,0.5,0.7,1.2,0.7,1.9V544z"/>
			<path fill="#3F3534" d="M368.6,544h-42.8v-14.2c0-1.5,1-2.7,2.3-2.7c5.8,0.7,12.2,1.1,19.2,1.1s13.3-0.4,19.2-1.1
				c0.2,0,1,0,1.6,0.8c0.4,0.5,0.7,1.2,0.7,1.9V544z"/>
			<path fill="#3F3534" d="M413.6,544h-42.8v-14.2c0-1.5,1-2.7,2.3-2.7c5.8,0.7,12.2,1.1,19.2,1.1s13.3-0.4,19.2-1.1
				c0.2,0,1,0,1.6,0.8c0.4,0.5,0.7,1.2,0.7,1.9V544z"/>
			<path fill="#3F3534" d="M458.5,544h-42.8v-14.2c0-1.5,1-2.7,2.3-2.7c5.8,0.7,12.2,1.1,19.2,1.1s13.3-0.4,19.2-1.1
				c0.2,0,1,0,1.6,0.8c0.4,0.5,0.7,1.2,0.7,1.9V544z"/>
			<path fill="#3F3534" d="M503.5,544h-42.8v-14.2c0-1.5,1-2.7,2.3-2.7c5.8,0.7,12.2,1.1,19.2,1.1s13.3-0.4,19.2-1.1
				c0.2,0,1,0,1.6,0.8c0.4,0.5,0.7,1.2,0.7,1.9V544z"/>
			<path fill="#3F3534" d="M548.4,544h-42.8v-14.2c0-1.5,1-2.7,2.3-2.7c5.8,0.7,12.2,1.1,19.2,1.1c6.9,0,13.3-0.4,19.2-1.1
				c0.2,0,1,0,1.6,0.8c0.4,0.5,0.7,1.2,0.7,1.9V544z"/>
			<path fill="#514341" d="M102.2,547.7h-43v-14.2c0-1.5,1-2.7,2.3-2.7c5.8,0.7,12.3,1.1,19.2,1.1c7,0,13.4-0.4,19.2-1.1
				c0.2,0,1,0,1.6,0.8c0.4,0.5,0.7,1.2,0.7,1.9V547.7z"/>
			<path fill="#514341" d="M147.4,547.7h-43v-14.2c0-1.5,1-2.7,2.3-2.7c5.8,0.7,12.3,1.1,19.2,1.1s13.4-0.4,19.2-1.1
				c0.2,0,1,0,1.6,0.8c0.4,0.5,0.7,1.2,0.7,1.9V547.7z"/>
			<path fill="#514341" d="M192.5,547.7h-43v-14.2c0-1.5,1-2.7,2.3-2.7c5.8,0.7,12.3,1.1,19.2,1.1c7,0,13.4-0.4,19.2-1.1
				c0.2,0,1,0,1.6,0.8c0.4,0.5,0.7,1.2,0.7,1.9V547.7z"/>
			<path fill="#514341" d="M237.7,547.7h-43v-14.2c0-1.5,1-2.7,2.3-2.7c5.8,0.7,12.3,1.1,19.2,1.1s13.4-0.4,19.2-1.1
				c0.2,0,1,0,1.6,0.8c0.4,0.5,0.7,1.2,0.7,1.9V547.7z"/>
			<path fill="#514341" d="M282.9,547.7h-43v-14.2c0-1.5,1-2.7,2.3-2.7c5.8,0.7,12.3,1.1,19.2,1.1c7,0,13.4-0.4,19.2-1.1
				c0.2,0,1,0,1.6,0.8c0.4,0.5,0.7,1.2,0.7,1.9V547.7z"/>
			<path fill="#514341" d="M328,547.7h-43v-14.2c0-1.5,1-2.7,2.3-2.7c5.8,0.7,12.3,1.1,19.2,1.1c7,0,13.4-0.4,19.2-1.1
				c0.2,0,1,0,1.6,0.8c0.4,0.5,0.7,1.2,0.7,1.9V547.7z"/>
			<path fill="#514341" d="M373.2,547.7h-43v-14.2c0-1.5,1-2.7,2.3-2.7c5.8,0.7,12.3,1.1,19.2,1.1c7,0,13.4-0.4,19.2-1.1
				c0.2,0,1,0,1.6,0.8c0.4,0.5,0.7,1.2,0.7,1.9V547.7z"/>
			<path fill="#514341" d="M418.3,547.7h-43v-14.2c0-1.5,1-2.7,2.3-2.7c5.8,0.7,12.3,1.1,19.2,1.1s13.4-0.4,19.2-1.1
				c0.2,0,1,0,1.6,0.8c0.4,0.5,0.7,1.2,0.7,1.9V547.7z"/>
			<path fill="#514341" d="M463.5,547.7h-43v-14.2c0-1.5,1-2.7,2.3-2.7c5.8,0.7,12.3,1.1,19.2,1.1c7,0,13.4-0.4,19.2-1.1
				c0.2,0,1,0,1.6,0.8c0.4,0.5,0.7,1.2,0.7,1.9V547.7z"/>
			<path fill="#514341" d="M508.7,547.7h-43v-14.2c0-1.5,1-2.7,2.3-2.7c5.8,0.7,12.3,1.1,19.2,1.1c7,0,13.4-0.4,19.2-1.1
				c0.2,0,1,0,1.6,0.8c0.4,0.5,0.7,1.2,0.7,1.9V547.7z"/>
			<path fill="#514341" d="M553.8,547.7h-43v-14.2c0-1.5,1-2.7,2.3-2.7c5.8,0.7,12.3,1.1,19.2,1.1c7,0,13.4-0.4,19.2-1.1
				c0.2,0,1,0,1.6,0.8c0.4,0.5,0.7,1.2,0.7,1.9V547.7z"/>
			<path fill="#6B5751" d="M95.8,551.6h-43v-14.2c0-1.5,1-2.7,2.3-2.7c5.8,0.7,12.3,1.1,19.2,1.1c7,0,13.4-0.4,19.2-1.1
				c0.2,0,1,0,1.6,0.8c0.4,0.5,0.7,1.2,0.7,1.9V551.6z"/>
			<path fill="#6B5751" d="M141,551.6h-43v-14.2c0-1.5,1-2.7,2.3-2.7c5.8,0.7,12.3,1.1,19.2,1.1c7,0,13.4-0.4,19.2-1.1
				c0.2,0,1,0,1.6,0.8c0.4,0.5,0.7,1.2,0.7,1.9V551.6z"/>
			<path fill="#6B5751" d="M186.1,551.6h-43v-14.2c0-1.5,1-2.7,2.3-2.7c5.8,0.7,12.3,1.1,19.2,1.1c7,0,13.4-0.4,19.2-1.1
				c0.2,0,1,0,1.6,0.8c0.4,0.5,0.7,1.2,0.7,1.9V551.6z"/>
			<path fill="#6B5751" d="M231.3,551.6h-43v-14.2c0-1.5,1-2.7,2.3-2.7c5.8,0.7,12.3,1.1,19.2,1.1s13.4-0.4,19.2-1.1
				c0.2,0,1,0,1.6,0.8c0.4,0.5,0.7,1.2,0.7,1.9V551.6z"/>
			<path fill="#6B5751" d="M276.5,551.6h-43v-14.2c0-1.5,1-2.7,2.3-2.7c5.8,0.7,12.3,1.1,19.2,1.1c7,0,13.4-0.4,19.2-1.1
				c0.2,0,1,0,1.6,0.8c0.4,0.5,0.7,1.2,0.7,1.9V551.6z"/>
			<path fill="#6B5751" d="M321.6,551.6h-43v-14.2c0-1.5,1-2.7,2.3-2.7c5.8,0.7,12.3,1.1,19.2,1.1s13.4-0.4,19.2-1.1
				c0.2,0,1,0,1.6,0.8c0.4,0.5,0.7,1.2,0.7,1.9V551.6z"/>
			<path fill="#6B5751" d="M366.8,551.6h-43v-14.2c0-1.5,1-2.7,2.3-2.7c5.8,0.7,12.3,1.1,19.2,1.1c7,0,13.4-0.4,19.2-1.1
				c0.2,0,1,0,1.6,0.8c0.4,0.5,0.7,1.2,0.7,1.9V551.6z"/>
			<path fill="#6B5751" d="M411.9,551.6h-43v-14.2c0-1.5,1-2.7,2.3-2.7c5.8,0.7,12.3,1.1,19.2,1.1c7,0,13.4-0.4,19.2-1.1
				c0.2,0,1,0,1.6,0.8c0.4,0.5,0.7,1.2,0.7,1.9V551.6z"/>
			<path fill="#6B5751" d="M457.1,551.6h-43v-14.2c0-1.5,1-2.7,2.3-2.7c5.8,0.7,12.3,1.1,19.2,1.1s13.4-0.4,19.2-1.1
				c0.2,0,1,0,1.6,0.8c0.4,0.5,0.7,1.2,0.7,1.9V551.6z"/>
			<path fill="#6B5751" d="M502.3,551.6h-43v-14.2c0-1.5,1-2.7,2.3-2.7c5.8,0.7,12.3,1.1,19.2,1.1s13.4-0.4,19.2-1.1
				c0.2,0,1,0,1.6,0.8c0.4,0.5,0.7,1.2,0.7,1.9V551.6z"/>
			<path fill="#6B5751" d="M547.4,551.6h-43v-14.2c0-1.5,1-2.7,2.3-2.7c5.8,0.7,12.3,1.1,19.2,1.1c7,0,13.4-0.4,19.2-1.1
				c0.2,0,1,0,1.6,0.8c0.4,0.5,0.7,1.2,0.7,1.9V551.6z"/>
			<path fill="#846B62" d="M89,551.6H46v-9.5c0-1,1-1.8,2.3-1.8c5.8,0.4,12.3,0.7,19.2,0.7c7,0,13.4-0.3,19.2-0.7c0.2,0,1,0,1.6,0.5
				c0.4,0.3,0.7,0.8,0.7,1.3V551.6z"/>
			<path fill="#846B62" d="M134.2,551.6h-43v-9.5c0-1,1-1.8,2.3-1.8c5.8,0.4,12.3,0.7,19.2,0.7c7,0,13.4-0.3,19.2-0.7
				c0.2,0,1,0,1.6,0.5c0.4,0.3,0.7,0.8,0.7,1.3V551.6z"/>
			<path fill="#846B62" d="M179.3,551.6h-43v-9.5c0-1,1-1.8,2.3-1.8c5.8,0.4,12.3,0.7,19.2,0.7c7,0,13.4-0.3,19.2-0.7
				c0.2,0,1,0,1.6,0.5c0.4,0.3,0.7,0.8,0.7,1.3V551.6z"/>
			<path fill="#846B62" d="M467.8,551.6h-43v-9.5c0-1,1-1.8,2.3-1.8c5.8,0.4,12.3,0.7,19.2,0.7s13.4-0.3,19.2-0.7c0.2,0,1,0,1.6,0.5
				c0.4,0.3,0.7,0.8,0.7,1.3V551.6z"/>
			<path fill="#846B62" d="M513,551.6h-43v-9.5c0-1,1-1.8,2.3-1.8c5.8,0.4,12.3,0.7,19.2,0.7c7,0,13.4-0.3,19.2-0.7
				c0.2,0,1,0,1.6,0.5c0.4,0.3,0.7,0.8,0.7,1.3V551.6z"/>
			<path fill="#846B62" d="M558.1,551.6h-43v-9.5c0-1,1-1.8,2.3-1.8c5.8,0.4,12.3,0.7,19.2,0.7c7,0,13.4-0.3,19.2-0.7
				c0.2,0,1,0,1.6,0.5c0.4,0.3,0.7,0.8,0.7,1.3V551.6z"/>
			<path fill="#846B62" d="M420.4,540.3c-38.8,0.9-78.3,1.3-118.5,1.3c-40.1,0-79.5-0.5-118.2-1.3c-0.1,0-0.9,0-1.5,0.7
				c-0.4,0.4-0.6,1-0.6,1.6v9h241v-9C422.5,541.4,421.6,540.3,420.4,540.3z"/>
		</g>
	</g>
	<g>
		<g>
			<rect x="163.7" y="441.8" fill="#A59990" width="196.1" height="9"/>
		</g>
		<g>
			<rect x="163.6" y="438.4" fill="#A59990" width="38.3" height="15.8"/>
		</g>
		
			<rect x="164.7" y="442.9" transform="matrix(-1 -1.224647e-16 1.224647e-16 -1 523.6048 892.5625)" fill="#262626" width="194.1" height="6.8"/>
		
			<rect x="164.7" y="439.5" transform="matrix(-1 -1.224647e-16 1.224647e-16 -1 365.5585 892.5625)" fill="#262626" width="36.1" height="13.5"/>
	</g>
	<g>
		
			<radialGradient id="SVGID_00000052817068161917407150000005742934704730858400_" cx="135.4401" cy="446.2812" r="16.9068" gradientUnits="userSpaceOnUse">
			<stop  offset="0.8352" style="stop-color:#000000;stop-opacity:0.2"/>
			<stop  offset="1" style="stop-color:#0C0C0C;stop-opacity:0.1"/>
		</radialGradient>
		<circle fill="url(#SVGID_00000052817068161917407150000005742934704730858400_)" cx="135.4" cy="446.3" r="16.9"/>
	</g>
	<g>
		<circle fill="#DBC9B6" cx="135.4" cy="446.3" r="14.5"/>
	</g>
	<g>
		<g>
			<path fill="#CCBBAC" d="M138.3,441v1.7c1.3,0.9,2.1,2.4,2.1,4.1c0,2.8-2.3,5-5,5c-2.8,0-5-2.3-5-5c0-1.7,0.9-3.2,2.2-4.1V441
				c-2.1,1-3.6,3.2-3.6,5.7c0,3.5,2.9,6.5,6.5,6.5c3.5,0,6.4-2.9,6.4-6.5C141.9,444.2,140.4,442,138.3,441z"/>
		</g>
		<g>
			<rect x="134.5" y="439.4" fill="#CCBBAC" width="1.9" height="7.6"/>
		</g>
	</g>
</g>
</svg>
