<?xml version="1.0" encoding="utf-8"?>
<!-- Generator: Adobe Illustrator 27.1.0, SVG Export Plug-In . SVG Version: 6.00 Build 0)  -->
<svg version="1.1" id="Layer_2" xmlns="http://www.w3.org/2000/svg" xmlns:xlink="http://www.w3.org/1999/xlink" x="0px" y="0px"
	 viewBox="0 0 600 600" enable-background="new 0 0 600 600" xml:space="preserve">
<g>
	<path fill="#FFFFFF" d="M505.1,4c11,0,19.9,8.9,19.9,19.9v552.2c0,11-8.9,19.9-19.9,19.9H94.9c-11,0-19.9-8.9-19.9-19.9V23.9
		C75,12.9,83.9,4,94.9,4H505.1 M505.1,0H94.9C81.7,0,71,10.7,71,23.9v552.2c0,13.2,10.7,23.9,23.9,23.9h410.2
		c13.2,0,23.9-10.7,23.9-23.9V23.9C529,10.7,518.3,0,505.1,0L505.1,0z"/>
</g>
<g>
	<path d="M140.3,365.1c-11.5,0-20.9-9.4-20.9-20.9V69.4c0-11.5,9.4-20.9,20.9-20.9h319.5c11.5,0,20.9,9.4,20.9,20.9v274.8
		c0,11.5-9.4,20.9-20.9,20.9H140.3z"/>
	<path fill="#FFFFFF" d="M459.7,50.5c10.4,0,18.9,8.5,18.9,18.9v274.8c0,10.4-8.5,18.9-18.9,18.9H140.3c-10.4,0-18.9-8.5-18.9-18.9
		V69.4c0-10.4,8.5-18.9,18.9-18.9H459.7 M459.7,46.5H140.3c-12.6,0-22.9,10.3-22.9,22.9v274.8c0,12.6,10.3,22.9,22.9,22.9h319.5
		c12.6,0,22.9-10.3,22.9-22.9V69.4C482.6,56.7,472.4,46.5,459.7,46.5L459.7,46.5z"/>
</g>
<g>
	<path fill="#FFFFFF" d="M181.3,448.4c-0.7,0-1.3-0.6-1.3-1.3c0-0.7,0.6-1.3,1.3-1.3h156c0.7,0,1.3,0.6,1.3,1.3
		c0,0.7-0.6,1.3-1.3,1.3H181.3z"/>
	<path fill="#FFFFFF" d="M337.4,446.4c0.4,0,0.7,0.3,0.7,0.7c0,0.4-0.3,0.7-0.7,0.7h-156c-0.4,0-0.7-0.3-0.7-0.7
		c0-0.4,0.3-0.7,0.7-0.7H337.4 M337.4,445h-156c-1.1,0-2,0.9-2,2v0c0,1.1,0.9,2,2,2h156c1.1,0,2-0.9,2-2v0
		C339.4,445.9,338.5,445,337.4,445L337.4,445z"/>
</g>
<circle fill="#FFFFFF" stroke="#FFFFFF" stroke-width="1.572" stroke-miterlimit="10" cx="142.6" cy="447" r="9"/>
</svg>
