<?xml version="1.0" encoding="UTF-8"?>
<svg id="Layer_2" data-name="Layer 2" xmlns="http://www.w3.org/2000/svg" width="358.59998" height="313.4" viewBox="0 0 358.59998 313.4">
  <g id="Layer_1-2" data-name="Layer 1">
    <g id="screen_glare" data-name="screen glare">
      <path d="M334.70002,310l-64.60001,2.29999-90.80002,1.10001-90.8-1.10001-64.59999-2.29999c-11.3,0-20.5-9.20001-20.5-20.5l-2.3-60.10001L0,156.7,1.1,74.4,3.4,23.9C3.4,12.6,12.6,3.4,23.9,3.4L88.50001,1.1,179.3,0l90.79999,1.1,64.60001,2.3c11.29999,0,20.5,9.2,20.5,20.5l2.29999,51,1.10001,82.3-1.10001,72.09999-2.29999,60.10001c.10004,11.40002-9.09995,20.60001-20.49997,20.60001Z"/>
    </g>
  </g>
</svg>