<?xml version="1.0" encoding="utf-8"?>
<!-- Generator: Adobe Illustrator 27.0.0, SVG Export Plug-In . SVG Version: 6.00 Build 0)  -->
<svg version="1.1" id="Layer_1" xmlns="http://www.w3.org/2000/svg" xmlns:xlink="http://www.w3.org/1999/xlink" x="0px" y="0px"
	 viewBox="0 0 358.6 313.4" enable-background="new 0 0 358.6 313.4" xml:space="preserve">
<path d="M334.7,310l-64.6,2.3l-90.8,1.1l-90.8-1.1L23.9,310c-11.3,0-20.5-9.2-20.5-20.5l-2.3-60.1L0,156.7l1.1-82.3l2.3-50.5
	c0-11.3,9.2-20.5,20.5-20.5l64.6-2.3L179.3,0l90.8,1.1l64.6,2.3c11.3,0,20.5,9.2,20.5,20.5l2.3,51l1.1,82.3l-1.1,72.1l-2.3,60.1
	C355.3,300.8,346.1,310,334.7,310z"/>
</svg>
